<svg width="10" height="9" viewBox="0 0 10 9" fill="none" xmlns="http://www.w3.org/2000/svg">
<path d="M4.64414 0.422591C4.70579 0.232866 4.9742 0.232866 5.03584 0.422591L5.90338 3.09259C5.93094 3.17743 6.01001 3.23488 6.09923 3.23488H8.90663C9.10612 3.23488 9.18906 3.49015 9.02767 3.60741L6.75643 5.25756C6.68426 5.31 6.65406 5.40295 6.68163 5.4878L7.54916 8.15779C7.61081 8.34752 7.39366 8.50528 7.23227 8.38803L4.96103 6.73788C4.88886 6.68544 4.79112 6.68544 4.71895 6.73788L2.44771 8.38803C2.28632 8.50528 2.06918 8.34752 2.13082 8.15779L2.99835 5.4878C3.02592 5.40295 2.99572 5.31 2.92355 5.25756L0.652313 3.60741C0.490923 3.49015 0.573867 3.23488 0.773356 3.23488H3.58075C3.66997 3.23488 3.74904 3.17743 3.77661 3.09259L4.64414 0.422591Z" fill="#F1CC4A"/>
</svg>
